<?xml version="1.0" standalone="no"?>
<!DOCTYPE svg PUBLIC "-//W3C//DTD SVG 20010904//EN"
 "http://www.w3.org/TR/2001/REC-SVG-20010904/DTD/svg10.dtd">
<svg version="1.0" xmlns="http://www.w3.org/2000/svg"
 width="512.000000pt" height="512.000000pt" viewBox="0 0 512.000000 512.000000"
 preserveAspectRatio="xMidYMid meet">
<metadata>
Created by potrace 1.11, written by Peter Selinger 2001-2013
</metadata>
<g transform="translate(0.000000,512.000000) scale(0.100000,-0.100000)"
fill="#000000" stroke="none">
<path d="M4510 4779 c-155 -7 -251 -24 -311 -55 -26 -13 -56 -24 -67 -24 -11
0 -25 -7 -32 -15 -7 -8 -18 -15 -25 -15 -7 0 -20 -11 -29 -25 -11 -17 -26 -25
-44 -25 -34 0 -94 -62 -112 -114 -9 -28 -16 -35 -30 -31 -20 6 -30 -27 -30
-104 0 -53 11 -76 37 -76 14 0 19 -9 21 -38 3 -35 1 -38 -20 -35 -21 3 -23 -1
-26 -54 -3 -55 -2 -57 25 -60 26 -3 28 -6 28 -52 0 -35 5 -52 17 -60 30 -18
38 5 44 115 3 57 7 105 10 108 2 3 141 5 307 6 263 1 308 4 347 19 25 10 60
20 78 23 19 3 36 12 39 19 3 8 13 14 22 14 9 0 25 7 35 15 11 8 36 15 57 15
20 0 42 7 49 15 7 8 15 13 19 10 4 -2 14 5 21 15 9 13 21 18 36 14 18 -5 22 0
27 33 3 21 9 49 12 63 4 14 7 41 6 60 -1 50 -25 163 -33 154 -8 -7 -82 29
-105 51 -8 8 -25 15 -37 15 -13 0 -36 4 -52 9 -41 14 -139 17 -284 10z"/>
<path d="M1635 4770 c-27 -5 -66 -13 -85 -19 -19 -6 -47 -11 -61 -11 -15 0
-32 -7 -39 -15 -7 -8 -20 -15 -30 -15 -9 0 -25 -9 -35 -20 -10 -11 -28 -20
-40 -20 -13 0 -30 -11 -39 -25 -9 -14 -23 -25 -31 -25 -9 0 -21 -11 -27 -25
-7 -15 -20 -25 -32 -25 -33 0 -43 -11 -65 -70 -26 -69 -28 -160 -3 -197 14
-22 17 -51 17 -158 1 -71 4 -136 8 -142 10 -16 63 -17 73 -1 4 6 8 53 8 104 1
62 6 98 14 106 10 10 72 13 260 13 293 1 419 18 481 67 13 10 32 16 41 13 9
-3 25 2 36 10 10 8 26 15 35 15 9 0 22 7 29 15 7 8 22 15 34 15 13 0 32 11 44
25 12 14 26 25 30 25 5 0 16 16 25 35 9 20 28 40 41 44 13 5 26 17 30 26 16
42 -4 128 -28 119 -6 -2 -21 14 -34 36 -12 22 -28 40 -34 40 -6 0 -20 8 -31
17 -36 33 -123 45 -337 48 -113 2 -227 -1 -255 -5z"/>
<path d="M3906 3957 c-15 -11 -16 -40 -14 -281 3 -238 5 -270 20 -279 12 -8
21 -7 32 2 14 12 16 49 16 282 0 251 -1 269 -19 278 -13 7 -23 7 -35 -2z"/>
<path d="M1172 3948 c-13 -13 -15 -227 -3 -438 l6 -115 34 -3 c20 -2 37 2 42
10 5 7 9 130 9 274 0 278 -1 284 -50 284 -14 0 -31 -5 -38 -12z"/>
<path d="M3854 3815 c0 -71 1 -99 3 -62 2 37 2 96 0 130 -2 34 -3 4 -3 -68z"/>
<path d="M3853 3490 c0 -41 2 -58 4 -37 2 20 2 54 0 75 -2 20 -4 3 -4 -38z"/>
<path d="M3902 3358 c-8 -8 -12 -55 -12 -145 0 -112 -2 -133 -15 -133 -12 0
-15 22 -17 133 l-2 132 -6 -130 c-7 -171 -20 -201 -94 -210 -28 -3 -588 -5
-1245 -3 -1025 3 -1195 5 -1199 17 -3 8 -15 24 -28 36 -23 21 -24 29 -24 152
0 143 -5 157 -57 151 l-28 -3 -7 -170 c-6 -147 -10 -171 -25 -183 -15 -11 -18
-29 -18 -125 l0 -112 33 -35 32 -35 1328 -3 c730 -2 1351 0 1380 3 44 5 55 11
62 30 7 17 18 25 42 27 l33 3 3 90 c4 112 -2 139 -29 132 -40 -11 -49 24 -49
203 0 164 -5 190 -35 190 -6 0 -16 -5 -23 -12z"/>
<path d="M1155 2605 l-30 -25 0 -113 c0 -102 2 -115 23 -141 20 -27 22 -39 22
-172 l0 -144 38 0 c56 0 62 11 62 120 0 69 4 102 15 116 8 10 15 27 15 36 0
43 -16 43 1246 46 1284 2 1268 3 1289 -46 6 -15 16 -21 27 -18 28 7 33 -11 38
-134 5 -115 5 -115 30 -115 l25 0 6 155 c3 85 7 156 7 158 1 1 15 2 31 2 36 0
41 16 41 130 0 114 -5 130 -41 130 -16 0 -32 7 -38 18 -9 16 -87 17 -1393 19
l-1383 2 -30 -24z"/>
<path d="M1170 1725 l0 -255 44 0 c31 0 46 5 50 16 12 31 7 469 -6 482 -7 7
-29 12 -50 12 l-38 0 0 -255z"/>
<path d="M3900 1725 l0 -256 28 3 27 3 0 250 0 250 -27 3 -28 3 0 -256z"/>
<path d="M1176 1432 c-3 -5 -6 -77 -7 -160 l-2 -150 -44 -13 c-32 -8 -73 -10
-146 -3 -121 10 -193 10 -304 2 -82 -6 -94 -9 -215 -47 -37 -11 -78 -21 -91
-21 -14 0 -30 -7 -37 -15 -18 -22 -69 -45 -100 -45 -28 0 -102 -71 -115 -110
-5 -15 -12 -19 -25 -15 -26 8 -40 -22 -40 -89 0 -70 7 -86 37 -86 16 0 29 -9
40 -28 20 -35 65 -62 104 -62 16 0 49 -10 72 -22 39 -21 54 -23 234 -22 160 0
195 3 210 16 10 9 43 19 73 22 83 10 190 42 203 60 7 9 27 18 45 20 18 2 41
11 51 20 9 9 23 16 29 16 7 0 12 6 12 13 0 20 31 45 59 49 19 2 28 14 41 53
25 75 33 195 15 219 -19 25 -19 70 0 86 20 17 20 90 0 90 -16 0 -31 42 -21 59
14 22 18 141 6 156 -13 16 -75 21 -84 7z"/>
<path d="M3905 1428 c-3 -7 -6 -78 -8 -158 l-2 -145 -30 -3 c-16 -2 -34 -8
-39 -13 -6 -5 -93 -6 -212 -2 -212 6 -271 0 -379 -39 -27 -10 -61 -18 -76 -18
-36 0 -92 -20 -102 -37 -4 -7 -18 -13 -31 -13 -33 0 -84 -28 -103 -56 -9 -15
-25 -24 -42 -24 -44 -1 -84 -70 -89 -152 -4 -62 -2 -69 22 -91 14 -13 26 -29
26 -35 0 -14 17 -24 44 -28 12 -1 44 -11 71 -22 28 -10 56 -17 62 -15 7 3 23
-3 37 -12 52 -34 369 -29 476 8 46 16 125 34 192 44 25 3 39 11 43 24 4 10 17
22 30 25 13 3 29 12 36 20 6 8 19 14 29 14 9 0 35 17 57 38 32 29 43 49 53 95
14 60 22 69 39 40 9 -16 10 -16 16 -2 10 25 1 149 -10 147 -5 -2 -10 -12 -11
-23 -2 -52 -5 -65 -14 -65 -5 0 -10 21 -10 46 0 25 -4 54 -10 64 -10 20 -13
62 -12 180 1 41 0 107 -1 145 -2 64 -4 70 -25 73 -12 2 -24 -3 -27 -10z"/>
</g>
</svg>
