<?xml version="1.0" standalone="no"?>
<!DOCTYPE svg PUBLIC "-//W3C//DTD SVG 20010904//EN"
 "http://www.w3.org/TR/2001/REC-SVG-20010904/DTD/svg10.dtd">
<svg version="1.0" xmlns="http://www.w3.org/2000/svg"
 width="512.000000pt" height="512.000000pt" viewBox="0 0 512.000000 512.000000"
 preserveAspectRatio="xMidYMid meet">
<metadata>
Created by potrace 1.11, written by Peter Selinger 2001-2013
</metadata>
<g transform="translate(0.000000,512.000000) scale(0.100000,-0.100000)"
fill="#000000" stroke="none">
<path d="M3629 4715 c-58 -16 -150 -60 -177 -86 -12 -10 -25 -19 -31 -19 -16
0 -69 -74 -86 -121 -9 -24 -21 -53 -26 -64 -4 -11 -7 -315 -6 -675 1 -360 1
-683 -1 -716 l-4 -62 -47 -5 c-25 -3 -95 -12 -156 -21 -60 -8 -128 -18 -150
-20 -207 -26 -281 -36 -295 -41 -14 -4 -374 -53 -525 -71 -16 -2 -75 -11 -130
-20 -55 -10 -116 -18 -135 -18 l-35 -1 -2 635 c-2 355 1 641 6 649 7 11 16 11
57 -3 62 -21 114 -20 206 3 80 21 109 35 217 107 81 53 113 104 113 178 0 60
-44 123 -104 154 -83 41 -237 25 -336 -37 -121 -74 -139 -89 -178 -147 -23
-34 -44 -77 -47 -95 -3 -19 -3 -771 -1 -1671 4 -1112 2 -1638 -5 -1638 -6 0
-32 7 -58 16 -33 12 -66 15 -108 11 -98 -10 -120 -15 -159 -36 -20 -12 -53
-31 -73 -42 -53 -30 -127 -106 -154 -158 -35 -68 -37 -146 -6 -201 51 -93 149
-128 276 -100 168 38 297 146 340 287 20 67 21 86 22 900 0 626 3 834 12 841
7 5 37 12 67 16 30 4 78 10 105 15 91 16 309 52 375 61 84 13 122 19 190 30
30 5 89 14 130 20 41 6 100 15 130 20 30 5 84 14 120 19 36 6 124 20 197 32
72 12 138 19 145 16 12 -4 14 -126 16 -743 0 -406 -1 -741 -4 -745 -2 -4 -23
-1 -46 7 -48 17 -157 18 -212 3 -119 -33 -270 -150 -316 -243 -30 -63 -27
-142 6 -192 15 -21 34 -44 43 -51 27 -21 104 -55 130 -58 82 -9 271 71 351
149 25 24 62 75 82 114 l38 70 -5 1656 c-4 1493 -3 1656 11 1656 8 0 25 -5 37
-12 29 -15 201 -12 247 5 132 49 270 154 270 206 0 11 5 23 10 26 6 3 10 30
10 58 0 47 -4 58 -37 95 -21 23 -55 48 -75 57 -45 18 -164 19 -229 0z"/>
</g>
</svg>
